<?xml version="1.0" encoding="utf-8"?>
<!-- Generator: Adobe Illustrator 26.0.1, SVG Export Plug-In . SVG Version: 6.00 Build 0)  -->
<svg version="1.1" id="Capa_1" xmlns="http://www.w3.org/2000/svg" xmlns:xlink="http://www.w3.org/1999/xlink" x="0px" y="0px"
	 viewBox="0 0 431.75 449.24" style="enable-background:new 0 0 431.75 449.24;" xml:space="preserve">
<style type="text/css">
	.st0{fill:none;}
	.st1{fill:#FFFFFF;}
</style>
<path d="M124.31,383.95c0-5.23,0-10.29,0-15.56c31.51,0,62.89,0,94.59,0c0,5.12,0,10.25,0,15.56
	C187.34,383.95,155.95,383.95,124.31,383.95z"/>
<path d="M163.6,115.63c5.55,0,10.59,0,16.09,0c0,3.79,0.14,7.39-0.05,10.97c-0.13,2.42,0.63,3.69,2.88,4.88
	c8.83,4.68,13.18,13.92,11.65,23.91c-1.4,9.13-8.57,16.62-17.76,18.56c-11.1,2.34-22.21-3.73-26.21-14.3
	c-3.96-10.47,0.14-22.34,10-27.8c2.72-1.51,3.66-3.13,3.45-6.06C163.43,122.55,163.6,119.31,163.6,115.63z M178.49,151.61
	c0.03-3.86-2.97-6.96-6.78-7c-3.8-0.04-6.88,3.02-6.91,6.86c-0.03,3.91,2.91,6.94,6.77,6.98
	C175.44,158.49,178.46,155.51,178.49,151.61z"/>
<path d="M111.75,158.85c5.42,0,10.36,0,15.89,0c0,3.53,0.16,6.98-0.05,10.41c-0.17,2.67,0.58,4.15,3.13,5.5
	c10.09,5.36,14.39,17.25,10.45,27.91c-4,10.81-15.29,17-26.43,14.5c-10.95-2.46-18.73-12.72-17.86-23.98
	c0.64-8.31,4.72-14.67,12.1-18.57c2.25-1.19,2.96-2.5,2.82-4.91C111.6,166.25,111.75,162.76,111.75,158.85z M126.67,194.62
	c-0.07-3.74-3.2-6.76-6.99-6.75c-3.8,0.01-6.88,3.06-6.91,6.82c-0.03,3.9,3.24,7.06,7.17,6.95
	C123.7,201.53,126.74,198.35,126.67,194.62z"/>
<path d="M350.8,371.78l-0.89-0.28c-4.58-1.46-7.63-4.53-10.09-7c-10.01-10.07-20.05-20.12-30.08-30.17l-10.4-10.42
	c-4.77-4.78-6.7-9.9-5.77-14.99c-11.28,6.8-23.96,10.37-37.15,10.37c0,0-0.01,0-0.01,0c-16.3,0-32.34-5.57-45.17-15.69
	c-13.61-10.74-22.68-25.59-26.22-42.96c-3.91-19.14,0.13-38.72,11.37-55.14c11.24-16.42,28.04-27.28,47.3-30.57
	c1.63-0.28,3.27-0.52,4.9-0.75c0.72-0.1,2.62-0.38,2.62-0.38h10.39l0.5,0.09c1.11,0.19,2.23,0.36,3.34,0.53
	c2.55,0.39,5.19,0.8,7.85,1.42c29.18,6.85,51.83,32.39,55.08,62.11c1.83,16.71-1.48,32.14-9.86,46c0.81-0.13,1.64-0.2,2.46-0.2
	c4.24,0,8.38,1.8,11.67,5.07c5.05,5.02,10.07,10.06,15.09,15.1c0,0,10.13,10.16,12.09,12.13c4.94,4.96,10.05,10.09,15.11,15.08
	c2.98,2.94,4.9,5.82,6.04,9.07l0.34,0.96v5.92l-0.26,0.86c-1.39,4.53-4.26,7.68-6.88,10.16c-2.21,2.09-4.4,4.29-6.52,6.53
	c-2.48,2.63-5.63,5.51-10.16,6.9l-0.86,0.26H350.8z M256.07,197.9c-26.56,0-48.24,21.79-48.33,48.58
	c-0.09,26.73,21.6,48.55,48.35,48.64h0.17c26.6,0,48.36-21.67,48.5-48.3c0.14-26.82-21.58-48.77-48.43-48.92L256.07,197.9z"/>
<path class="st0" d="M198.83,261.99c0.4,0.29,0.79,0.57,1.19,0.86c1.07-1.17,2.16-2.32,3.26-3.47c-1-4.15-1.54-8.47-1.53-12.91
	c0.1-30.04,24.54-54.56,54.32-54.56c0.1,0,0.2,0,0.31,0c11.81,0.07,22.71,3.86,31.6,10.25c0.13-5.32-0.64-10.53-2.19-15.47
	c-4.38-2.18-9.03-3.89-13.88-5.03c-3.56-0.84-7.22-1.27-10.83-1.89c-3.14,0-6.29,0-9.43,0c-2.32,0.35-4.65,0.66-6.96,1.05
	c-29.99,5.12-52.02,30.45-54.8,59.44c2.25-0.2,4.51-0.4,6.82-0.6C197.44,247.38,198.14,254.69,198.83,261.99z"/>
<path class="st0" d="M301.85,216.61c5.69,8.68,8.98,19.07,8.92,30.24c-0.16,29.98-24.57,54.27-54.5,54.27c-0.06,0-0.13,0-0.19,0
	c-19.93-0.07-37.4-10.96-46.85-27.05c-2.04,1.68-4.08,3.36-6.1,5.07c-0.99,0.85-2.35,2.22-2.26,3.24c0.04,0.46,0.08,0.92,0.12,1.38
	c12.53,18.71,33.63,29.52,55.44,29.52c14.23,0,28.76-4.6,41.39-14.6c0.36-0.29,0.77-0.52,0.87-0.59c1.71,1.67,3.3,3.22,4.91,4.79
	c-0.05,0.07-0.15,0.23-0.27,0.36c-5.35,5.71-5.27,10.87,0.27,16.42c13.5,13.53,27.02,27.04,40.5,40.59c2.26,2.28,4.5,4.51,7.66,5.52
	c1.33,0,2.66,0,3.99,0c3.09-0.95,5.39-2.99,7.55-5.28c2.19-2.32,4.44-4.58,6.76-6.77c2.29-2.17,4.32-4.48,5.27-7.56
	c0-1.33,0-2.66,0-4c-0.93-2.67-2.58-4.8-4.59-6.78c-7.06-6.96-14.03-14.01-21.04-21.03c-7.09-7.1-14.16-14.22-21.28-21.3
	c-2.24-2.22-4.84-3.33-7.44-3.33c-2.58,0-5.17,1.09-7.41,3.25c-0.38,0.36-0.78,0.7-1.36,1.23c-1.31-1.39-2.55-2.71-3.79-4.03
	c-0.28-0.3-0.56-0.61-0.88-0.95c0.24-0.34,0.43-0.64,0.65-0.92c11.5-14.64,16.24-31.21,14.21-49.72
	c-1.61-14.71-8.38-28.27-18.48-38.65c0.01,1.45-0.02,2.91-0.12,4.37C303.52,208.56,302.85,212.67,301.85,216.61z M335.35,317.87
	c8.72,8.73,17.62,17.64,26.51,26.55c-2.56,2.57-5.33,5.34-7.99,8c-8.83-8.84-17.72-17.76-26.51-26.56
	C329.99,323.22,332.76,320.46,335.35,317.87z M321.08,303.24c1.64,1.7,3.5,3.64,5.23,5.43c-2.57,2.57-5.36,5.36-8.23,8.24
	c-1.74-1.74-3.61-3.61-5.33-5.33C315.54,308.79,318.33,305.99,321.08,303.24z"/>
<path class="st0" d="M251.12,263.71c-8.47,1.48-16.93,1.24-25.24-0.89c-2.63-0.68-3.84,0.22-5.68,1.9c-0.55,0.5-1.11,0.98-1.67,1.47
	c7.07,13.56,21.24,22.87,37.58,22.93l0.15,0c23.31,0,42.38-18.99,42.5-42.33c0.03-5.35-0.95-10.48-2.73-15.21
	C286.98,248.35,270.83,260.26,251.12,263.71z"/>
<path class="st0" d="M225.45,246.15c25.02,8.26,52.09-5.53,60.16-30.33c-7.62-7.31-17.94-11.84-29.31-11.91l-0.24,0
	c-23.26,0-42.25,19.11-42.32,42.6c0,0.21,0.01,0.41,0.01,0.62C216.84,243.75,218.82,243.96,225.45,246.15z"/>
<path d="M203.13,279.15c2.01-1.72,4.05-3.4,6.1-5.07c-2.66-4.53-4.68-9.46-5.95-14.69c-1.1,1.15-2.19,2.3-3.26,3.47
	c-0.4-0.29-0.79-0.57-1.19-0.86c-0.69-7.3-1.39-14.61-2.12-22.33c-2.31,0.2-4.56,0.4-6.82,0.6c-0.6,6.27-0.32,12.71,1,19.16
	c1.86,9.13,5.37,17.29,10.09,24.34c-0.04-0.46-0.08-0.92-0.12-1.38C200.78,281.36,202.13,279.99,203.13,279.15z"/>
<path d="M277.1,170.61c-6.24-7.6-14.86-13.36-25.14-15.93c-7.79-1.95-8.78-3.05-9.86-10.95c-5.35-39.29-44.29-67.15-83.19-59.52
	c-31.05,6.09-53.09,29.12-57.84,60.44c-1.02,6.69-2.46,8.35-8.45,9.73c-27,6.21-43.03,33.26-35.45,59.81
	c7.47,26.16,35.57,40.63,61.54,31.68c7.27-2.51,9.05-1.88,13.39,4.5c3.22,4.73,6.98,8.92,12.27,12.39
	c0.78-8.03,1.5-15.41,2.24-23.12c5.43,0.5,10.46,0.96,15.82,1.44c-3.03,32.98-6.03,65.52-9.04,98.27c12.37,0,24.26,0,36.51,0
	c-1.07-11.66-2.14-23.29-3.21-34.91l16.06-0.24c1.04,11.7,2.12,23.45,3.21,35.38c13.19,0,25.89,0,38.86,0c0,5.29,0,10.34,0,15.66
	c-48.68,0-97.38,0-146.35,0c0-5.03,0-10.08,0-15.52c12.79,0,25.58,0,38.76,0c0.71-7.13,1.41-13.92,2.04-20.72
	c1.09-11.7,2.08-23.4,3.23-35.1c0.23-2.38-0.5-3.59-2.49-5.11c-6.02-4.57-11.61-9.72-17.5-14.49c-1.14-0.93-3.02-1.84-4.3-1.56
	c-37,8.12-70.78-13.91-77.92-50.96c-5.72-29.69,12.4-60.95,41.33-70.78c3.32-1.13,4.25-2.84,4.94-5.91
	c8.91-39.73,43.67-67.63,84.5-67.98c41.67-0.36,77.54,28.57,85.93,69.41c0.46,2.24,1.39,3.38,3.58,4.1
	c16,5.19,28.05,15.18,35.52,29.86L277.1,170.61z"/>
<path d="M285.79,186.69c1.55,4.93,2.32,10.15,2.19,15.47c5.47,3.93,10.18,8.83,13.87,14.46c1-3.95,1.67-8.06,1.94-12.3
	c0.1-1.47,0.13-2.92,0.12-4.37C298.68,194.57,292.56,190.05,285.79,186.69z"/>
<path class="st1" d="M298.77,246.79c-0.12,23.34-19.19,42.33-42.5,42.33l-0.15,0c-16.34-0.06-30.51-9.37-37.58-22.93
	c-3.04,2.7-6.17,5.3-9.31,7.88c9.45,16.09,26.92,26.98,46.85,27.05c0.06,0,0.13,0,0.19,0c29.93,0,54.35-24.29,54.5-54.27
	c0.06-11.17-3.23-21.57-8.92-30.24c-1.34,5.31-3.3,10.32-5.81,14.97C297.83,236.31,298.8,241.44,298.77,246.79z"/>
<path class="st1" d="M326.31,308.67c-1.72-1.79-3.59-3.73-5.23-5.43c-2.75,2.75-5.54,5.55-8.34,8.34c1.72,1.72,3.6,3.59,5.33,5.33
	C320.95,314.03,323.75,311.24,326.31,308.67z"/>
<path class="st1" d="M256.07,191.9c-29.78,0-54.23,24.52-54.32,54.56c-0.01,4.45,0.52,8.77,1.53,12.91c2.55-2.67,5.1-5.34,7.3-8.27
	c1.26-1.68,2.27-2.98,3.18-3.99c0-0.21-0.01-0.41-0.01-0.62c0.08-23.49,19.06-42.6,42.32-42.6l0.24,0
	c11.37,0.06,21.69,4.6,29.31,11.91c0.15-0.47,0.31-0.94,0.45-1.42c1.19-4.08,1.81-8.19,1.91-12.24c-8.9-6.39-19.79-10.18-31.6-10.25
	C256.28,191.9,256.17,191.9,256.07,191.9z"/>
<path class="st1" d="M361.86,344.42c-8.89-8.9-17.79-17.82-26.51-26.55c-2.59,2.59-5.35,5.35-7.99,7.99
	c8.79,8.8,17.68,17.72,26.51,26.56C356.52,349.76,359.29,346.99,361.86,344.42z"/>
<path class="st1" d="M213.76,247.13c-0.91,1-1.92,2.31-3.18,3.99c-2.2,2.93-4.76,5.6-7.3,8.27c1.26,5.23,3.29,10.16,5.95,14.69
	c3.14-2.58,6.27-5.18,9.31-7.88C215.55,260.47,213.84,253.99,213.76,247.13z"/>
<path class="st1" d="M285.62,215.81c4.56,4.38,8.16,9.75,10.42,15.77c2.51-4.64,4.47-9.66,5.81-14.97
	c-3.69-5.63-8.4-10.53-13.87-14.46c-0.1,4.05-0.72,8.16-1.91,12.24C285.93,214.87,285.77,215.34,285.62,215.81z"/>
<path d="M257.75,204.09c19.6,0.35,37.36,15.89,40.3,35.31c0.32,2.09,0.52,4.21,0.61,6.32c0.16,3.96-2.3,6.76-5.88,6.84
	c-3.6,0.09-6.12-2.53-6.26-6.51c-0.51-13.68-8.98-24.93-21.7-28.57c-2.59-0.74-5.33-1.06-8.02-1.26c-4.02-0.3-6.65-2.64-6.58-6.21
	c0.07-3.57,2.8-5.95,6.81-5.92C257.27,204.09,257.51,204.09,257.75,204.09z"/>
</svg>
