<svg id="Capa_1" data-name="Capa 1" xmlns="http://www.w3.org/2000/svg" viewBox="0 0 771.73 832.54"><path d="M356.9,528.25c2.93-10.32,5.84-20,8.28-29.84.37-1.48-.95-4.45-2.31-5.15-22.54-11.71-38.78-29.13-48.78-52.48-.63-1.46-2.78-3.24-4.23-3.25-22.77-.2-45.53-.14-68.66-.14-.23,1.54-.67,2.64-.5,3.64,2.08,12.55-3,22.08-11.71,30.72-6.88,6.81-12.45,14.93-19.24,21.84a17.06,17.06,0,0,1-10.42,4.79c-23.88,1-22.87-.24-39.56-17-15.34-15.43-21.13-32-19.84-53.67,1.8-30.16.45-60.51.45-90.78,0-15.52.37-15.94,16.24-17.78,0-9.05.16-18.24,0-27.42-.35-16.13,6.24-27.95,21.23-34.43,5.57-2.4,3.06-6.93,3.12-10.5,0-2.62-1.12-6.91-2.89-7.63-12.36-5-20.27-13.86-24.48-26.55H96.48c-2.26,0-4.52,0-6.78,0-5.77-.17-9.46-2.9-10-8.85-.48-5.46,3.46-9.66,9.66-9.87,8.58-.3,17.17-.1,25.75-.11h38.35c.9-2,1.72-4.06,2.66-6,6.9-14.52,18.78-22,34.47-22.05,15.53,0,27.4,7.64,33.73,21.92,2.31,5.2,4.92,6.32,10,6.25,18.52-.25,37-.18,55.56-.05,7.76.06,12.19,4.77,10.86,11.25-1.23,6-5.58,7.6-11.12,7.58-18.75-.07-37.49.11-56.24-.13-4.39-.05-6.77.93-8.45,5.39a34.09,34.09,0,0,1-20.59,20.28c-3.68,1.4-5.19,3.42-4.44,7,.9,4.32-2.73,9.56,4.24,12.65,13.44,6,19.9,17.17,20.2,31.8.19,9.69,0,19.38,0,28.75.72.61,1,1.1,1.38,1.13,13.42,1.19,14.86,2.74,14.87,16.1v34.86h66c0-7.79.56-15.62-.14-23.33-.93-10.3,2.92-15.85,12.76-19.87C379.91,302.49,440,303,500.08,329.07c6.31,2.74,8.89,6.9,8.7,13.61-.26,9-.07,18-.07,27.61h66.06q0-17.21,0-34.33c0-13.93,1.55-15.61,16.21-16.57,0-8.16.22-16.43-.05-24.69-.57-17.15,5.42-30.07,21.58-38.05,2.46-1.22,2.51-8.15,2.78-12.5a6.86,6.86,0,0,0-3.38-5.42c-10.69-4.32-17.8-11.86-22.51-22.24-.85-1.88-4.18-3.69-6.4-3.73-18.28-.29-36.58-.16-54.87-.17-9.44,0-13.61-2.82-13.71-9.21-.1-6.59,4.31-9.63,14.08-9.64,18.07,0,36.14-.07,54.2.06,3.68,0,5.92-.49,7.58-4.58,6.26-15.38,18.31-23.44,34.71-23.48s28.31,8.23,34.74,23.49c1.47,3.5,3.2,4.63,6.91,4.6,19-.19,37.94,0,56.91-.12,5.13,0,9.55,1.12,11.61,6.32,2.59,6.51-2.35,12.48-10.48,12.53-19.19.1-38.39,0-57.59,0h-5.31c-4.34,13.78-13.45,23.08-27.56,27.48a43.58,43.58,0,0,1,0,5.62c-.93,6.67.88,10.68,7.73,14C652.78,265,658.29,275,658.6,287.24c.28,10.57.06,21.15.06,32,2.46.19,4.21.34,6,.46,7.07.52,10.33,3.57,10.35,10.67q.13,61.32-.09,122.66a14.64,14.64,0,0,1-3.08,8.56c-9,11-18.37,21.72-27.62,32.53a14.94,14.94,0,0,1-1.4,1.47c-6.13,5.45-32,4.09-37.42-2.1-8.9-10.22-17.88-20.38-26.33-31-2.33-2.92-3.49-7.17-4.09-11-.69-4.36-.16-8.91-.16-13.7-2.1-.2-3.62-.48-5.14-.49-20.55,0-41.1,0-61.65-.06-3.39,0-5.63.38-7.24,4.21a99.17,99.17,0,0,1-47.34,51c-3.19,1.63-4.27,3.17-3.13,6.78,2.58,8.16,4.48,16.55,7.21,24.66.61,1.81,3.37,3.75,5.38,4,4.2.63,8.57.06,12.85.25,10.87.49,20,9,20.12,19.92q.41,55.57,0,111.14c-.1,12.38-9.93,20.4-23.93,20.42q-64.38.11-128.74,0c-.67,0-1.35,0-2,0-13.28-.77-21.69-9.38-21.73-22.77q-.15-53.19,0-106.39c0-13.76,8.78-22.22,22.56-22.37C346.7,528.21,351.42,528.25,356.9,528.25ZM325.33,378.17l-1.44.17c1.67,15.62,1.64,31.66,5.35,46.77,9.12,37.2,45.89,62.54,83.91,59.66,39.32-3,72.23-33.24,75.66-71.55,1.9-21.29,1-42.84,1-64.27,0-1.87-2.47-4.7-4.43-5.48q-77.72-31.07-155.58-.11c-3.57,1.42-4.66,3.37-4.57,7C325.48,359.65,325.33,368.91,325.33,378.17ZM408.41,547c-21,0-42,.14-62.92-.1-5.36-.06-7.58,1.24-7.54,7.1q.36,50.07,0,100.16c0,5.34,1.8,7,7.07,7q62.58-.25,125.18,0c5.16,0,7.2-1.41,7.17-6.86q-.28-50.41,0-100.84c0-5.11-1.85-6.54-6.74-6.49C449.9,547.11,429.15,547,408.41,547ZM159,338.83v8.59c0,24.16,1.34,48.43-.39,72.47-1.57,21.73,2.73,39.87,19.94,54a16.64,16.64,0,0,1,1.73,2.07c4.74,5.47,15.28,5.56,20.05.07,5.93-6.82,12.07-13.49,17.47-20.71a19.61,19.61,0,0,0,3.85-10.82c.29-32.75.17-65.49.17-98.24v-7.43Zm434.46.14v7.9c0,28.86.56,57.73-.26,86.57-.34,12.29,1.87,22.42,11.38,30.62,3.2,2.77,5.64,6.43,8.42,9.69,7.51,8.79,16.41,8.75,24-.12,5.12-6,10.59-11.75,15.23-18.11a20,20,0,0,0,3.94-10.79c.3-32.92.18-65.84.18-98.76v-7Zm-19.25,51.27H508.51v27.81h65.73Zm-333,27.93h65.47V390.11H241.2ZM431.75,502.5h-48.1c-2.11,7.67-4.48,16.23-7,25.26h62.07C436.25,518.74,433.88,510.18,431.75,502.5ZM205.52,319.41c0-11,.35-21.35-.11-31.64a14.7,14.7,0,0,0-13.77-14.18c-6.91-.56-14.78,3.82-15.31,10.46-.94,11.68-.26,23.49-.26,35.36Zm434.32-.13c0-10.79.4-21.54-.13-32.25-.4-7.82-6.79-13.24-14.29-13.47-7.73-.23-14.78,5.17-15.29,13.2-.67,10.68-.16,21.45-.16,32.52ZM171.8,203c-.07,10.91,7.65,18.91,18.33,19S209,214.28,209,203.55s-7.85-19-18.37-19.25A18.63,18.63,0,0,0,171.8,203Zm471.77.37a18.72,18.72,0,0,0-18.49-19.12c-10.36-.15-18.67,8.25-18.71,18.89,0,10.89,7.76,18.84,18.51,18.87S643.56,214.2,643.57,203.41Z"/></svg>