<svg id="Capa_1" data-name="Capa 1" xmlns="http://www.w3.org/2000/svg" viewBox="0 0 771.73 832.54"><path d="M77.36,556.47l.72-.09a10,10,0,0,1,11,8.08c10.32,55.24,39.43,98.07,89.26,126.35C217.43,713,259.62,719,303.53,709.14a178,178,0,0,0-35.87-351.66C171.13,355.91,91.54,432,86.53,525.61a10,10,0,0,1-10,9.47h0a10,10,0,0,1-10-10.05c.51-66.64,49.73-159.21,152.83-183.08,112.49-26,221.78,46.85,241.48,159.7,19.39,111.08-58.32,216.73-170.82,231.08C180.91,746.66,85.72,670.48,68.7,568.08A10,10,0,0,1,77.36,556.47Z"/><path d="M307.15,393.28l-1.31,4.28a8.1,8.1,0,0,1-9.19,5.59l-11.53-2.08a8.1,8.1,0,0,0-9.55,8v2.67a8.1,8.1,0,0,1-8.1,8.1h-4.94a8.1,8.1,0,0,1-8.1-8.1V408.9a8.09,8.09,0,0,0-9.19-8,133.86,133.86,0,0,0-61.35,25.28,8.13,8.13,0,0,0-.75,12.53l1.37,1.27a8.1,8.1,0,0,1,.13,11.78l-3,2.93a8.1,8.1,0,0,1-12-.89l-.26-.34a8.12,8.12,0,0,0-13,.14c-14.32,19.23-22.7,39.39-26.09,61.9a8.08,8.08,0,0,0,8,9.24H141a8.1,8.1,0,0,1,8.1,8.1v4.92a8.11,8.11,0,0,1-8.1,8.11h-2.81a8.07,8.07,0,0,0-8,9.18,133.91,133.91,0,0,0,25.42,61.5,8.14,8.14,0,0,0,12.72.54l.85-1a8.1,8.1,0,0,1,12-.33l2.83,2.94a8.1,8.1,0,0,1-.89,12l-.34.27a8.12,8.12,0,0,0,.15,12.95A134.75,134.75,0,0,0,244.81,670a8.08,8.08,0,0,0,9.24-8v-2.78a8.11,8.11,0,0,1,8.1-8.11h4.92a8.11,8.11,0,0,1,8.1,8.11V662a8.09,8.09,0,0,0,9.19,8,134.29,134.29,0,0,0,61.36-25.28,8.13,8.13,0,0,0,.74-12.55L345.12,631a8.1,8.1,0,0,1-.17-11.78l3-3a8.11,8.11,0,0,1,12.08.87l.26.34a8.13,8.13,0,0,0,13-.14c14.29-19.24,22.66-39.4,26-61.91a8.08,8.08,0,0,0-8-9.23h-2.78a8.11,8.11,0,0,1-8.1-8.11v-4.91a8.11,8.11,0,0,1,8.1-8.11h2.77a8.09,8.09,0,0,0,8-9.21,135.28,135.28,0,0,0-25.22-61.11,8.12,8.12,0,0,0-12.68-.62l-.71.82a8.11,8.11,0,0,1-12.18,0l-3.28-3.73a8.09,8.09,0,0,1,1-11.6l.16-.13a8.11,8.11,0,0,0-.63-13.05l-16.39-10.87a8.1,8.1,0,0,1-2.84-10.25l1.89-4a8.11,8.11,0,0,1,11-3.73c62.79,32.59,102.86,114.44,71.63,195.28-31.46,81.45-123.88,121.28-205.57,88.7C124.64,649.35,85.5,555.72,119.4,475c33.45-79.68,118.11-109.18,182.19-91.89A8.08,8.08,0,0,1,307.15,393.28Z"/><path d="M279.71,315.41h-8.89a6,6,0,0,1-6-6v-.9q0-87.66,0-175.34c0-17.85,9.13-27,26.91-27H667.25c17.5,0,26.86,9.19,26.87,26.43q0,88.32,0,176.65h0a6,6,0,0,1-6,6h-8.89a6,6,0,0,1-6-6V307.7c0-57.58-.1-115.15.13-172.72,0-6.35-1.8-8-8.08-8q-185.8.25-371.62,0c-6.37,0-8,1.85-8,8.1.23,57.36.14,114.72.14,172.07v2.29A6,6,0,0,1,279.71,315.41Z"/><path d="M679.81,336.63h7.7a6.62,6.62,0,0,1,6.62,6.63v.37q0,181.92,0,363.85c0,17.77-9.2,26.94-27,26.94H386.93a6.62,6.62,0,0,1-6.62-6.62v-7.7a6.62,6.62,0,0,1,6.62-6.62H664.66c8.52,0,8.53,0,8.53-8.65V343.26A6.62,6.62,0,0,1,679.81,336.63Z"/><path d="M589.1,541.84v8a6.38,6.38,0,0,1-6.38,6.38H523a6.37,6.37,0,0,0-6.37,6.37v81.57a6.37,6.37,0,0,0,6.37,6.38h80.7A6.38,6.38,0,0,1,610,657v8.32a6.28,6.28,0,0,1-6.19,6.31h-.06q-47.12,0-94.23,0c-11.12,0-14.38-3.27-14.39-14.41q0-53.65,0-107.31c0-11.16,3.24-14.4,14.38-14.4,24.26,0,48.52,0,73.17,0A6.38,6.38,0,0,1,589.1,541.84Z"/><path d="M589.1,355.88v8a6.38,6.38,0,0,1-6.38,6.38H523a6.37,6.37,0,0,0-6.37,6.37v81.58a6.37,6.37,0,0,0,6.37,6.37h80.7A6.38,6.38,0,0,1,610,471v8.32a6.27,6.27,0,0,1-6.19,6.31h-.06q-47.12,0-94.23,0c-11.12,0-14.38-3.27-14.39-14.4q0-53.66,0-107.32c0-11.15,3.24-14.39,14.38-14.4,24.26,0,48.52,0,73.17,0A6.38,6.38,0,0,1,589.1,355.88Z"/><path d="M589.1,174.42v8a6.38,6.38,0,0,1-6.38,6.38H523a6.37,6.37,0,0,0-6.37,6.38v81.57a6.37,6.37,0,0,0,6.37,6.37h80.7a6.38,6.38,0,0,1,6.38,6.38v8.32a6.27,6.27,0,0,1-6.19,6.31h-.06q-47.12,0-94.23,0c-11.12,0-14.38-3.27-14.39-14.4q0-53.65,0-107.31c0-11.16,3.24-14.4,14.38-14.41,24.26,0,48.52,0,73.17,0A6.38,6.38,0,0,1,589.1,174.42Z"/><path d="M400.14,174.42v8a6.38,6.38,0,0,1-6.37,6.38H334a6.38,6.38,0,0,0-6.38,6.38v81.57a6.38,6.38,0,0,0,6.38,6.37H414.7a6.38,6.38,0,0,1,6.38,6.38v8.32a6.27,6.27,0,0,1-6.19,6.31h-.06q-47.11,0-94.22,0c-11.13,0-14.39-3.27-14.39-14.4q0-53.65,0-107.31c0-11.16,3.24-14.4,14.37-14.41,24.26,0,48.52,0,73.17,0A6.38,6.38,0,0,1,400.14,174.42Z"/><path d="M260.32,452h8.95a6,6,0,0,1,6,6h0c0,31.59-.09,63.19.09,94.78,0,6-1.85,10.29-6.6,14-14.95,11.7-29.72,23.64-45.05,35.92a6,6,0,0,1-8.42-.92l-5.59-6.95a6,6,0,0,1,.92-8.44c13-10.4,25.51-20.54,38.22-30.46,3.91-3,5.68-6.2,5.63-11.38-.29-28.33-.14-56.65-.14-85V458A6,6,0,0,1,260.32,452Z"/><path d="M345.6,224.56l5.59-5.6a6.18,6.18,0,0,1,8.79,0l14.32,14.63a6.19,6.19,0,0,0,8.8,0l57.53-57.76a6.19,6.19,0,0,1,8.84.09l6.66,6.94a6.08,6.08,0,0,1,0,8.48l-.05,0q-32.83,32.86-65.69,65.71c-8.23,8.21-12.54,8.16-20.84-.1l-23.92-23.78A6.18,6.18,0,0,1,345.6,224.56Z"/><path d="M533.53,226.22l8.39-8.51a4.58,4.58,0,0,1,6.62.08l15.52,16.64a4.61,4.61,0,0,0,6.62.11L630,175.13a4.59,4.59,0,0,1,6.71.24c2.94,3.37,5.65,6.49,8.39,9.65a4.52,4.52,0,0,1-.18,6.14l0,0q-33.08,33.09-66.17,66.16c-7.95,7.94-12.42,7.92-20.37,0-8.31-8.27-16.6-16.56-24.75-24.69A4.58,4.58,0,0,1,533.53,226.22Z"/><path d="M533.53,414.18l8.39-8.52a4.58,4.58,0,0,1,6.62.09l15.52,16.64a4.61,4.61,0,0,0,6.62.11L630,363.09a4.59,4.59,0,0,1,6.71.23l8.39,9.66a4.51,4.51,0,0,1-.18,6.13l0,.05q-33.08,33.09-66.17,66.16c-7.95,7.94-12.42,7.92-20.37,0-8.31-8.27-16.6-16.56-24.75-24.69A4.58,4.58,0,0,1,533.53,414.18Z"/><path d="M533.87,591.41l6.51-6.26a5.68,5.68,0,0,1,8,.13l14.91,15.26a5.69,5.69,0,0,0,8.09,0l58.2-58.43a5.67,5.67,0,0,1,8.09,0l7.33,7.53a5.58,5.58,0,0,1,0,7.8l0,0q-33.06,33.11-66.16,66.17c-8.2,8.19-12.52,8.13-20.84-.15-8-7.91-15.91-15.81-24.19-24A5.69,5.69,0,0,1,533.87,591.41Z"/></svg>