<svg id="Capa_1" data-name="Capa 1" xmlns="http://www.w3.org/2000/svg" viewBox="0 0 771.73 832.54"><path d="M67.25,557.66l20.28-2.4C96.25,615,125.75,661,178.32,690.81,217.43,713,259.62,719,303.53,709.14a178,178,0,0,0-35.87-351.66c-99.77-1.62-181.44,79.75-181.37,177.6H66.89c-4.71-67,44.13-168,152.52-193.13,112.49-26,221.78,46.85,241.48,159.7,19.39,111.08-58.32,216.73-170.82,231.08C177.24,747.13,79.33,665.25,67.25,557.66Z"/><path d="M309.53,385.51c-2,6.61-3.92,12.8-5.8,18.92l-28.16-5.08v20.46H254.43v-20c-29.79,2.42-55.22,13.17-78.28,32.38l14.67,13.55L175.08,461,163,445.21c-20.58,24.32-31.19,49.82-33.84,79.49h20v21.13h-20c2.44,29.78,13.17,55.22,32.74,78.69L175,609.31l15.28,15.86-15.67,12.1c24.27,20.61,49.79,31.17,79.45,33.86v-20h21.12v20c29.79-2.41,55.21-13.21,78.34-32.39l-14.71-13.5,15.71-15.27,12.13,15.78c20.55-24.33,31.16-49.84,33.8-79.51h-20V525.06h20c-2.51-29.77-13.36-55.17-32.49-78.32l-13.26,15.13-14.92-16.94L355,432.55l-31.47-20.87L332,394c67,29.77,111.6,114.87,79.14,198.89-31.46,81.45-123.88,121.28-205.57,88.7C124.64,649.35,85.5,555.72,119.4,475,154.26,392,244.69,363.41,309.53,385.51Z"/><path d="M285.74,315.41H264.79v-6.92q0-87.66,0-175.34c0-17.85,9.13-27,26.91-27H667.25c17.5,0,26.86,9.19,26.87,26.43q0,88.32,0,176.65v6H673.19V307.7c0-57.58-.1-115.15.13-172.72,0-6.35-1.8-8-8.08-8q-185.8.25-371.62,0c-6.37,0-8,1.85-8,8.1.23,57.36.14,114.72.14,172.07Z"/><path d="M673.19,336.63h20.94v7q0,181.92,0,363.85c0,17.77-9.2,26.94-27,26.94H380.31V713.48H664.66c8.52,0,8.53,0,8.53-8.65V336.63Z"/><path d="M400.62,169v20.78H328.1v94.32h93.44v20.66c-1.83.12-3.7.36-5.57.36q-47.78,0-95.54,0c-10.26,0-13.73-3.48-13.74-13.73q0-54.32,0-108.62c0-10.3,3.45-13.76,13.7-13.77C347,168.94,373.53,169,400.62,169Z"/><path d="M589.16,169v20.66H516.65v94.32H610v21.16h-6q-47.43,0-94.88,0c-10.57,0-13.91-3.43-13.91-14.22q0-54,0-108c0-10.39,3.41-13.91,13.53-13.92C535.3,168.93,561.88,169,589.16,169Z"/><path d="M589.11,357.44v20.77H516.59v94.33H610v20.65c-1.83.13-3.7.37-5.57.37q-47.76,0-95.53,0c-10.27,0-13.74-3.48-13.75-13.73q0-54.31,0-108.62c0-10.3,3.45-13.76,13.69-13.77C535.45,357.43,562,357.44,589.11,357.44Z"/><path d="M589.1,535.46v20.79H516.59v94.32H610V671.3c-2.07.09-4.16.28-6.25.28q-47.12,0-94.23,0c-11.12,0-14.38-3.27-14.39-14.41q0-53.65,0-107.31c0-11.16,3.24-14.4,14.38-14.4C535.9,535.45,562.25,535.46,589.1,535.46Z"/><path d="M254.32,452h20.94v6c0,31.59-.09,63.19.09,94.78,0,6-1.85,10.29-6.6,14-16.46,12.89-32.7,26.05-49.72,39.66l-13.11-16.29c14.65-11.72,28.67-23.11,42.91-34.22,3.91-3,5.68-6.2,5.63-11.38-.29-28.33-.14-56.65-.14-85Z"/><path d="M341.22,229l14.39-14.41,23.07,23.57,66.41-66.66,15,15.63c-1.2,1.32-2.56,2.92-4,4.4q-32.83,32.86-65.69,65.71c-8.23,8.21-12.54,8.16-20.84-.1Z"/><path d="M530.33,229.47c5.26-5.34,9.81-9.95,14.95-15.18l22,23.62,66.13-66.27,14.27,16.42c-.27.3-1.51,1.78-2.87,3.14q-33.08,33.09-66.17,66.16c-7.95,7.94-12.42,7.92-20.37,0C548.89,248,539.5,238.62,530.33,229.47Z"/><path d="M649.23,376.75c-3.36,2.91-7.18,5.83-10.56,9.18q-30.18,30-60.19,60.11c-7.69,7.67-12.28,7.67-19.91.09-9.56-9.51-19.09-19.05-28.81-28.76l15-14.69L567.68,427,634,360.43Z"/><path d="M529.68,595.44l14.76-14.19,22.87,23.41,66.34-66.61,15,15.39c-1.14,1.3-2.31,2.78-3.64,4.11q-33.06,33.11-66.16,66.17c-8.2,8.19-12.52,8.13-20.84-.15Z"/></svg>