<svg id="Capa_1" data-name="Capa 1" xmlns="http://www.w3.org/2000/svg" viewBox="0 0 771.73 832.54"><path d="M149.17,636.73c2.61-7.52,7-13.42,14.58-16.7,1-.44,1.73-2.61,1.8-4,.28-5.81,0-11.65.38-17.45a42.64,42.64,0,0,1,41.86-39.64c5.3-.12,10.6,0,16.32,0V495.26c-4.87-.37-9.55-.27-14-1.15A36.86,36.86,0,0,1,181,450.52c.65-3.27-.1-4.92-2.78-6.89C165.27,434.15,158,421.31,157,405.26c-.48-7.46-.41-15-.23-22.45s4.39-11.69,12-11.72c8.81,0,17.73-.53,26.41.62,15.67,2.07,27.71,10.57,36.78,24.23l3.16-4c10.39-13.17,23.81-20.45,40.72-20.83q10.23-.23,20.46,0c5.64.13,10.36,3.46,10.66,8.58.83,13.74,2.05,27.61-3.12,40.92a45,45,0,0,1-3.51,7.14c-2.44,4-6.64,5.09-10.29,3a7.16,7.16,0,0,1-2.74-10c6.33-10.73,5.25-22.38,5.07-34-24.06-3.83-44.73,3-51.63,27.86a31.74,31.74,0,0,0-1,9.37c.05,1.74,1.19,3.55,2.19,5.1.78,1.23,2.47,1.93,3.11,3.19,3.94,7.74,10.43,7.38,17.4,5.76,1.45-.34,2.89-.78,4.37-1,4.4-.63,7.82,1.48,8.89,5.37a7.18,7.18,0,0,1-5.22,8.89c-4.91,1.37-10,2.08-15.35,3.14.24,9.75-1.44,19.63-8.76,26.47-6.3,5.88-7,12.22-6.88,19.9.34,17.13.1,34.27.1,51.4v6.6c5.45,0,10.56,0,15.67,0,26.64.06,44.77,17.92,45.22,44.59.08,4.93,0,9.87,0,15h36.93c0-5,0-9.75,0-14.51.29-27.25,18.36-45.1,45.67-45.14h13.82V495.35c-4.25-.37-8.57-.36-12.73-1.17a36.94,36.94,0,0,1-29.53-43.34c.57-3-.11-4.66-2.72-6.49-13.6-9.54-21.22-22.71-22.22-39.35-.45-7.46-.4-15-.18-22.45s4.42-11.39,11.69-11.46c8.48-.08,17-.52,25.43.41,14.37,1.6,26,8.69,34.91,20.11.92,1.18,1.81,2.38,2.73,3.55.08.1.3.08.87.23.57-.73,1.25-1.59,1.91-2.47,10.58-14,24.52-21.6,42.22-21.85,6.65-.09,13.31-.14,20,.06,5.76.17,10.4,3.82,10.51,9.31.23,10.44.88,21.12-.92,31.3-4,22.76-22.09,38.71-45.1,41.62-1.48.19-3,.42-4.5.63-.51,4.16-.69,8.31-1.59,12.29a37.4,37.4,0,0,1-12.32,20.05c-1.43,1.26-2.88,3.45-2.89,5.23-.19,21.62-.12,43.25-.09,64.88a17.91,17.91,0,0,0,.4,2.43c5,0,9.94,0,14.89,0,25.35.11,43.4,17.41,44.48,42.76.23,5.47,0,11,0,16.78h37.27c0-7-.1-13.78.05-20.56a25.76,25.76,0,0,1,1.18-6.85c1.28-4.18,4.88-6.25,8.91-5.16s5.76,4.1,5.5,8.3c-.48,7.94-.88,15.89-1.33,24.24H628.15c0-7.75,1-15.5-.22-22.9-2-12.22-13.45-21.36-25.95-21.55-17-.25-34-.17-50.92,0-3.24,0-6.52,1.11-9.69,2-4.9,1.39-8.79,0-10.37-4-1.66-4.18.3-8.8,5.47-9.93,7.55-1.65,15.32-2.29,23-3.11a97.8,97.8,0,0,1,10.16-.06V495.28c-4.23-.31-8.24-.21-12.09-.93-21-3.93-34-22.77-30.22-43.75.51-2.83-.1-4.37-2.56-6.09-13.78-9.63-21.48-22.91-22.45-39.76-.42-7.3-.37-14.64-.17-21.95.21-7.61,4.39-11.69,12-11.71,8.81,0,17.72-.51,26.41.62,15.68,2.05,27.67,10.63,36.78,24.2l3.15-4c10.39-13.17,23.82-20.45,40.72-20.82,6.82-.15,13.65-.16,20.47,0,6,.15,10.66,3.82,10.81,9.57.26,10.12.86,20.45-.75,30.35-3.74,22.84-22.11,39.41-45.07,42.3-1.63.21-3.26.47-4.52.65-.89,5.18-.88,10.42-2.78,14.83a57,57,0,0,1-10,15.77c-3,3.34-4.6,6.19-4.54,10.72.24,19,.1,37.93.1,56.89v6.68h13.58c26.71.06,44.82,17.85,45.31,44.51,0,1.33.08,2.67,0,4-.39,6.81.1,11.87,7.49,16.55,14.3,9.07,11.1,30.92-4.47,37.82-1.5.66-3,1.29-4.51,1.93H167.14a26.24,26.24,0,0,1-18-18Zm255.54,12H633.8c7.93,0,11.67-2.5,11.51-7.71-.15-5-3.7-7.26-11.45-7.26H175.69c-7.95,0-11.67,2.5-11.51,7.7.15,5,3.71,7.27,11.45,7.27ZM285.15,618.49c0-6.83.44-13.33-.09-19.75A27.11,27.11,0,0,0,258.88,574Q233,573.46,207,574c-12.4.24-23.86,9.87-25.59,22-1,7.28-.19,14.84-.19,22.55Zm171.73.11c0-6.88.43-13.37-.09-19.78a27.22,27.22,0,0,0-26.6-24.88c-17-.27-33.93-.38-50.88,0-11.67.29-20.12,6.39-24.73,17.15-3.78,8.84-2,18.14-2.06,27.46Zm8.87-232.49c-7,0-12.78-.2-18.54,0-19.5.82-35.5,18.13-34.94,37.65.06,2,11.1,14.78,13.1,15.09a14.76,14.76,0,0,0,1.49,0c17.13.37,32.91-11.06,36.73-27.82C465.37,403.29,465.05,395,465.75,386.11Zm171.92,0c-6.18,0-12-.2-17.72,0-19.51.81-35.49,18.09-35,37.63,0,2,11.06,14.79,13.07,15.1a12.47,12.47,0,0,0,1.5,0,37.65,37.65,0,0,0,35.9-24.44C638.86,405.34,637.75,395.93,637.67,386.11Zm-274.9,47.14c9-10,20.45-14.05,34.27-12.95-1.46-13.16-7.61-22.58-18.3-29.21s-22.28-5-33.78-4.95C342.69,406.87,345.37,423.36,362.77,433.25Zm206.69-13c-2.19-24-22.41-38.73-52-33.55-2.75,22.74,3.92,39.94,18.21,46.4C544.51,423.25,555.87,419.28,569.46,420.29ZM188.12,432.35c6.29-3.72,11.36-7.76,17.14-9.82s12.23-2.12,18.89-3.14a30.09,30.09,0,0,0-5.48-16C207.4,386.65,192.75,384.25,172,386.7,170.45,404.71,171.62,421.71,188.12,432.35ZM217.38,480A22.44,22.44,0,1,0,195.1,457.3,22.53,22.53,0,0,0,217.38,480Zm173.74,0a22.44,22.44,0,1,0-22.3-22.7A22.52,22.52,0,0,0,391.12,480Zm172.66,0a22.44,22.44,0,1,0-22.24-22.75A22.52,22.52,0,0,0,563.78,480Z"/><path d="M412.24,305.33c0,11.75,0,22.72,0,33.69a43.51,43.51,0,0,1-.17,5.48c-.56,4.21-3.05,6.68-7.31,6.69s-6.94-2.46-7.28-6.69c-.35-4.46-.2-9-.21-13.46,0-8.31,0-16.62,0-25.71H257c-19.23,0-30.38-11.05-30.41-30.29q-.09-46.17,0-92.33c0-19,11.23-30.1,30.08-30.1q148.25,0,296.48,0c18.31,0,29.74,11.12,29.81,29.36q.2,46.91,0,93.82c-.06,18.27-11.47,29.5-29.65,29.54-10.32,0-20.64,0-30.95,0-5.83,0-9.13-2.85-9.07-7.57s3.35-7.35,9.28-7.37c10.48,0,21,0,31.44,0,8.8-.06,13.88-4.69,13.92-13.4q.21-47.91,0-95.81c0-8.78-5-13.53-13.79-13.53q-149.47,0-299,0c-8.44,0-13.51,4.78-13.55,13.24q-.21,48.15,0,96.31c0,8.94,5.25,13.2,15.11,13.2h227.1c1.66,0,3.34-.1,5,.05,4.32.4,7.15,3.44,7.11,7.51s-2.9,7-7.27,7.36c-1.32.12-2.66.05-4,.05H412.24Z"/><path d="M323.24,189.79c4.95-2.29,9-4.84,13.35-6.06,16.37-4.56,31.36,5.62,35.21,23.44,2.76,12.8-.43,24.39-7.23,35.14-9,14.14-21.87,24-36.35,31.76a10.85,10.85,0,0,1-8.89-.09c-13.66-7.47-26-16.68-34.91-29.79-8-11.75-11.84-24.52-8.05-38.69,5.88-21.92,27-29.48,45.66-16.49C322.57,189.38,323.13,189.71,323.24,189.79Zm-33.5,26.38-.68.33c1.66,5,2.71,10.28,5.1,14.88,6.25,12,16.69,20,28,27a4,4,0,0,0,3.5,0c11.15-6.85,21.32-14.83,27.8-26.53,3.81-6.86,5.58-14.15,3.51-22.05-3.45-13.18-14.63-16.32-24.41-6.8-6.64,6.46-10.64,6.45-17.34,0-9.84-9.5-21-6.38-24.37,6.86C290.31,211.89,290.1,214.05,289.74,216.17Z"/><path d="M465.64,218.05q22.94,0,45.87,0c1.82,0,4.18-.47,5.34.45,2.25,1.79,5.2,4.38,5.27,6.72s-2.59,5.3-4.8,7.06c-1.4,1.12-4.15.71-6.29.71q-45.37,0-90.75,0c-7.9,0-11.67-2.58-11.5-7.78.17-5,3.58-7.19,11.48-7.19Z"/><path d="M465.62,248q22.94,0,45.87,0c1.82,0,4.18-.48,5.35.45,2.25,1.78,5.2,4.36,5.28,6.7s-2.58,5.31-4.79,7.07c-1.39,1.12-4.14.71-6.29.72q-45.37,0-90.74,0c-7.91,0-11.68-2.57-11.52-7.77.16-5,3.56-7.2,11.47-7.2Z"/><path d="M477.1,188.11c12,0,23.92,0,35.88,0,6.1,0,9.35,2.53,9.53,7.12s-3.32,7.79-9.45,7.8q-36.13.11-72.26,0c-6.69,0-10.24-3.42-9.34-8.71.84-4.89,4.31-6.25,8.76-6.23C452.52,188.13,464.81,188.11,477.1,188.11Z"/></svg>